# xmcd CD database file
#
# Track frame offsets:
#	150
#	17203
#	39992
#
# Disc length: 767 seconds
#
# Revision: 0
# Processed by: cddbd v1.5.1PL2 Copyright (c) Steve Scherf et al.
# Submitted via: CDex 1.51
#
DISCID=1a02fd03
DTITLE=平川地一丁目 - 夢の途中
DYEAR=2006
DGENRE=Pop
TTITLE0=夢の途中
TTITLE1=校庭に見つけた春
TTITLE2=松山行フェリー
EXTD=YEAR: 2006
EXTT0=
EXTT1=
EXTT2=
PLAYORDER=
